<mxfile host="app.diagrams.net" modified="2023-10-04T17:05:46.856Z" agent="Mozilla/5.0 (X11; Linux x86_64; rv:109.0) Gecko/20100101 Firefox/114.0" etag="E-u9jL1dxWIKdSMdQW78" version="22.0.2" type="github">
  <diagram name="Page-1" id="nQif56E7kkOQrzdCGWt1">
    <mxGraphModel dx="2284" dy="795" grid="1" gridSize="10" guides="1" tooltips="1" connect="1" arrows="1" fold="1" page="1" pageScale="1" pageWidth="850" pageHeight="1100" math="0" shadow="0">
      <root>
        <mxCell id="0" />
        <mxCell id="1" parent="0" />
        <mxCell id="W1kXFLvTLNy5a-SGzHVt-1" value="biblioteca" style="whiteSpace=wrap;html=1;align=center;fillColor=#ffe6cc;strokeColor=#d79b00;" parent="1" vertex="1">
          <mxGeometry x="-90" y="430" width="100" height="40" as="geometry" />
        </mxCell>
        <mxCell id="W1kXFLvTLNy5a-SGzHVt-9" style="edgeStyle=orthogonalEdgeStyle;rounded=0;orthogonalLoop=1;jettySize=auto;html=1;entryX=0;entryY=0.5;entryDx=0;entryDy=0;endArrow=none;endFill=0;" parent="1" source="W1kXFLvTLNy5a-SGzHVt-2" target="W1kXFLvTLNy5a-SGzHVt-6" edge="1">
          <mxGeometry relative="1" as="geometry" />
        </mxCell>
        <mxCell id="W1kXFLvTLNy5a-SGzHVt-2" value="libro" style="whiteSpace=wrap;html=1;align=center;fillColor=#ffe6cc;strokeColor=#d79b00;" parent="1" vertex="1">
          <mxGeometry x="420" y="430" width="100" height="40" as="geometry" />
        </mxCell>
        <mxCell id="W1kXFLvTLNy5a-SGzHVt-7" style="edgeStyle=orthogonalEdgeStyle;rounded=0;orthogonalLoop=1;jettySize=auto;html=1;endArrow=none;endFill=0;" parent="1" source="W1kXFLvTLNy5a-SGzHVt-3" target="W1kXFLvTLNy5a-SGzHVt-6" edge="1">
          <mxGeometry relative="1" as="geometry" />
        </mxCell>
        <mxCell id="W1kXFLvTLNy5a-SGzHVt-3" value="socio" style="whiteSpace=wrap;html=1;align=center;fillColor=#ffe6cc;strokeColor=#d79b00;" parent="1" vertex="1">
          <mxGeometry x="1010" y="430" width="100" height="40" as="geometry" />
        </mxCell>
        <mxCell id="W1kXFLvTLNy5a-SGzHVt-10" style="edgeStyle=orthogonalEdgeStyle;rounded=0;orthogonalLoop=1;jettySize=auto;html=1;endArrow=none;endFill=0;" parent="1" source="W1kXFLvTLNy5a-SGzHVt-5" target="W1kXFLvTLNy5a-SGzHVt-1" edge="1">
          <mxGeometry relative="1" as="geometry" />
        </mxCell>
        <mxCell id="W1kXFLvTLNy5a-SGzHVt-11" style="edgeStyle=orthogonalEdgeStyle;rounded=0;orthogonalLoop=1;jettySize=auto;html=1;entryX=0;entryY=0.5;entryDx=0;entryDy=0;endArrow=none;endFill=0;" parent="1" source="W1kXFLvTLNy5a-SGzHVt-5" target="W1kXFLvTLNy5a-SGzHVt-2" edge="1">
          <mxGeometry relative="1" as="geometry" />
        </mxCell>
        <mxCell id="W1kXFLvTLNy5a-SGzHVt-5" value="almacena" style="shape=rhombus;perimeter=rhombusPerimeter;whiteSpace=wrap;html=1;align=center;fillColor=#dae8fc;strokeColor=#6c8ebf;" parent="1" vertex="1">
          <mxGeometry x="160" y="420" width="120" height="60" as="geometry" />
        </mxCell>
        <mxCell id="W1kXFLvTLNy5a-SGzHVt-6" value="son prestados" style="shape=rhombus;perimeter=rhombusPerimeter;whiteSpace=wrap;html=1;align=center;fillColor=#dae8fc;strokeColor=#6c8ebf;" parent="1" vertex="1">
          <mxGeometry x="710" y="420" width="120" height="60" as="geometry" />
        </mxCell>
        <mxCell id="Sxq2EqL9_N4yMKl_PXqh-8" style="edgeStyle=orthogonalEdgeStyle;rounded=0;orthogonalLoop=1;jettySize=auto;html=1;entryX=0.5;entryY=0;entryDx=0;entryDy=0;endArrow=none;endFill=0;" edge="1" parent="1" source="Sxq2EqL9_N4yMKl_PXqh-6" target="W1kXFLvTLNy5a-SGzHVt-3">
          <mxGeometry relative="1" as="geometry" />
        </mxCell>
        <mxCell id="Sxq2EqL9_N4yMKl_PXqh-6" value="cÃ³digo de socio" style="ellipse;whiteSpace=wrap;html=1;align=center;fontStyle=4;fillColor=#fff2cc;strokeColor=#d6b656;" vertex="1" parent="1">
          <mxGeometry x="1010" y="60" width="100" height="40" as="geometry" />
        </mxCell>
        <mxCell id="Sxq2EqL9_N4yMKl_PXqh-7" value="Attribute" style="ellipse;whiteSpace=wrap;html=1;align=center;" vertex="1" parent="1">
          <mxGeometry x="1100" y="110" width="100" height="40" as="geometry" />
        </mxCell>
        <mxCell id="Sxq2EqL9_N4yMKl_PXqh-9" value="Attribute" style="ellipse;whiteSpace=wrap;html=1;align=center;" vertex="1" parent="1">
          <mxGeometry x="1170" y="220" width="100" height="40" as="geometry" />
        </mxCell>
        <mxCell id="Sxq2EqL9_N4yMKl_PXqh-10" value="Attribute" style="ellipse;whiteSpace=wrap;html=1;align=center;" vertex="1" parent="1">
          <mxGeometry x="1140" y="300" width="100" height="40" as="geometry" />
        </mxCell>
        <mxCell id="Sxq2EqL9_N4yMKl_PXqh-11" value="Attribute" style="ellipse;whiteSpace=wrap;html=1;align=center;" vertex="1" parent="1">
          <mxGeometry x="880" y="160" width="100" height="40" as="geometry" />
        </mxCell>
        <mxCell id="Sxq2EqL9_N4yMKl_PXqh-12" value="Attribute" style="ellipse;whiteSpace=wrap;html=1;align=center;" vertex="1" parent="1">
          <mxGeometry x="850" y="230" width="100" height="40" as="geometry" />
        </mxCell>
        <mxCell id="Sxq2EqL9_N4yMKl_PXqh-13" value="Attribute" style="ellipse;whiteSpace=wrap;html=1;align=center;" vertex="1" parent="1">
          <mxGeometry x="920" y="110" width="100" height="40" as="geometry" />
        </mxCell>
      </root>
    </mxGraphModel>
  </diagram>
</mxfile>
